<svg width="114" height="24" viewBox="0 0 114 24" fill="none" xmlns="http://www.w3.org/2000/svg">
<path d="M17.7083 8.33333C8.33331 10.4167 6.14581 16.8437 3.97915 22.2292L5.9479 22.9167L6.93748 20.5208C7.43748 20.6979 7.95831 20.8333 8.33331 20.8333C19.7916 20.8333 22.9166 3.125 22.9166 3.125C21.875 5.20833 14.5833 5.46875 9.37498 6.51042C4.16665 7.55208 2.08331 11.9792 2.08331 14.0625C2.08331 16.1458 3.90623 17.9687 3.90623 17.9687C7.29165 8.33333 17.7083 8.33333 17.7083 8.33333Z" fill="#F8F8F8"/>
<path d="M32.3807 5.45455L36.1662 16.9034H36.3153L40.0938 5.45455H42.9915L37.8636 20H34.6108L29.4901 5.45455H32.3807ZM48.4513 20.2131C47.3576 20.2131 46.413 19.9858 45.6175 19.5312C44.8268 19.072 44.2184 18.4233 43.7923 17.5852C43.3661 16.7424 43.1531 15.7505 43.1531 14.6094C43.1531 13.4872 43.3661 12.5024 43.7923 11.6548C44.2231 10.8026 44.8245 10.1397 45.5962 9.66619C46.368 9.18797 47.2747 8.94886 48.3164 8.94886C48.9888 8.94886 49.6232 9.05777 50.2198 9.27557C50.8211 9.48864 51.3514 9.82008 51.8107 10.2699C52.2747 10.7197 52.6393 11.2926 52.9045 11.9886C53.1696 12.6799 53.3022 13.5038 53.3022 14.4602V15.2486H44.3604V13.5156H50.8377C50.833 13.0232 50.7264 12.5852 50.5181 12.2017C50.3098 11.8134 50.0186 11.508 49.6445 11.2855C49.2752 11.063 48.8443 10.9517 48.3519 10.9517C47.8263 10.9517 47.3647 11.0795 46.967 11.3352C46.5692 11.5862 46.2591 11.9176 46.0366 12.3295C45.8188 12.7367 45.7075 13.1842 45.7028 13.6719V15.1847C45.7028 15.8191 45.8188 16.3636 46.0508 16.8182C46.2828 17.268 46.6071 17.6136 47.0238 17.8551C47.4405 18.0919 47.9281 18.2102 48.4869 18.2102C48.8609 18.2102 49.1995 18.1581 49.5025 18.054C49.8055 17.9451 50.0683 17.7865 50.2908 17.5781C50.5134 17.3698 50.6815 17.1117 50.7951 16.804L53.1957 17.0739C53.0442 17.7083 52.7553 18.2623 52.3292 18.7358C51.9078 19.2045 51.368 19.5691 50.7099 19.8295C50.0517 20.0852 49.2989 20.2131 48.4513 20.2131ZM60.2216 24.3182C59.2983 24.3182 58.5052 24.1927 57.8423 23.9418C57.1795 23.6955 56.6468 23.3641 56.2443 22.9474C55.8419 22.5308 55.5625 22.0691 55.4062 21.5625L57.7216 21.0014C57.8258 21.2145 57.9773 21.4252 58.1761 21.6335C58.375 21.8466 58.6425 22.0218 58.9787 22.1591C59.3196 22.3011 59.7481 22.3722 60.2642 22.3722C60.9934 22.3722 61.5971 22.1946 62.0753 21.8395C62.5535 21.4891 62.7926 20.9115 62.7926 20.1065V18.0398H62.6648C62.5322 18.3049 62.3381 18.5772 62.0824 18.8565C61.8314 19.1359 61.4976 19.3703 61.081 19.5597C60.669 19.7491 60.1506 19.8438 59.5256 19.8438C58.6875 19.8438 57.9276 19.6473 57.2457 19.2543C56.5687 18.8565 56.0289 18.2647 55.6264 17.4787C55.2287 16.688 55.0298 15.6984 55.0298 14.5099C55.0298 13.312 55.2287 12.3011 55.6264 11.4773C56.0289 10.6487 56.571 10.0213 57.2528 9.59517C57.9347 9.1643 58.6946 8.94886 59.5327 8.94886C60.1719 8.94886 60.6974 9.05777 61.1094 9.27557C61.526 9.48864 61.8575 9.74669 62.1037 10.0497C62.3499 10.348 62.5369 10.6297 62.6648 10.8949H62.8068V9.09091H65.3423V20.1776C65.3423 21.1103 65.1198 21.8821 64.6747 22.4929C64.2296 23.1037 63.6212 23.5606 62.8494 23.8636C62.0777 24.1667 61.2017 24.3182 60.2216 24.3182ZM60.2429 17.8267C60.7874 17.8267 61.2514 17.6941 61.6349 17.429C62.0185 17.1638 62.3097 16.7827 62.5085 16.2855C62.7074 15.7884 62.8068 15.1918 62.8068 14.4957C62.8068 13.8092 62.7074 13.2079 62.5085 12.6918C62.3144 12.1757 62.0256 11.7756 61.642 11.4915C61.2633 11.2027 60.7969 11.0582 60.2429 11.0582C59.67 11.0582 59.1918 11.2074 58.8082 11.5057C58.4247 11.804 58.1359 12.2135 57.9418 12.7344C57.7476 13.2505 57.6506 13.8376 57.6506 14.4957C57.6506 15.1634 57.7476 15.7481 57.9418 16.25C58.1406 16.7472 58.4318 17.1354 58.8153 17.4148C59.2036 17.6894 59.6795 17.8267 60.2429 17.8267ZM72.8068 20.2131C71.7131 20.2131 70.7685 19.9858 69.973 19.5312C69.1823 19.072 68.5739 18.4233 68.1477 17.5852C67.7216 16.7424 67.5085 15.7505 67.5085 14.6094C67.5085 13.4872 67.7216 12.5024 68.1477 11.6548C68.5786 10.8026 69.1799 10.1397 69.9517 9.66619C70.7235 9.18797 71.6302 8.94886 72.6719 8.94886C73.3442 8.94886 73.9787 9.05777 74.5753 9.27557C75.1766 9.48864 75.7069 9.82008 76.1662 10.2699C76.6302 10.7197 76.9948 11.2926 77.2599 11.9886C77.5251 12.6799 77.6577 13.5038 77.6577 14.4602V15.2486H68.7159V13.5156H75.1932C75.1884 13.0232 75.0819 12.5852 74.8736 12.2017C74.6652 11.8134 74.3741 11.508 74 11.2855C73.6307 11.063 73.1998 10.9517 72.7074 10.9517C72.1818 10.9517 71.7202 11.0795 71.3224 11.3352C70.9247 11.5862 70.6146 11.9176 70.392 12.3295C70.1742 12.7367 70.063 13.1842 70.0582 13.6719V15.1847C70.0582 15.8191 70.1742 16.3636 70.4062 16.8182C70.6383 17.268 70.9626 17.6136 71.3793 17.8551C71.7959 18.0919 72.2836 18.2102 72.8423 18.2102C73.2164 18.2102 73.5549 18.1581 73.858 18.054C74.161 17.9451 74.4238 17.7865 74.6463 17.5781C74.8688 17.3698 75.0369 17.1117 75.1506 16.804L77.5511 17.0739C77.3996 17.7083 77.1108 18.2623 76.6847 18.7358C76.2633 19.2045 75.7235 19.5691 75.0653 19.8295C74.4072 20.0852 73.6544 20.2131 72.8068 20.2131ZM85.2802 9.09091V11.0795H79.0089V9.09091H85.2802ZM80.5572 6.47727H83.1282V16.7188C83.1282 17.0644 83.1803 17.3295 83.2844 17.5142C83.3933 17.6941 83.5354 17.8172 83.7106 17.8835C83.8858 17.9498 84.0799 17.983 84.293 17.983C84.454 17.983 84.6007 17.9711 84.7333 17.9474C84.8706 17.9238 84.9748 17.9025 85.0458 17.8835L85.479 19.8935C85.3417 19.9408 85.1452 19.9929 84.8896 20.0497C84.6386 20.1065 84.3308 20.1397 83.9663 20.1491C83.3223 20.1681 82.7423 20.071 82.2262 19.858C81.7101 19.6402 81.3005 19.304 80.9975 18.8494C80.6992 18.3949 80.5524 17.8267 80.5572 17.1449V6.47727ZM90.5696 20.2202C89.8783 20.2202 89.2557 20.0971 88.7017 19.8509C88.1525 19.5999 87.7169 19.2306 87.3949 18.7429C87.0777 18.2552 86.919 17.6539 86.919 16.9389C86.919 16.3234 87.0327 15.8144 87.2599 15.4119C87.4872 15.0095 87.7973 14.6875 88.1903 14.446C88.5833 14.2045 89.026 14.0223 89.5185 13.8991C90.0156 13.7713 90.5294 13.679 91.0597 13.6222C91.6989 13.5559 92.2173 13.4967 92.6151 13.4446C93.0128 13.3878 93.3016 13.3026 93.4815 13.1889C93.6662 13.0705 93.7585 12.8883 93.7585 12.642V12.5994C93.7585 12.0644 93.5999 11.6501 93.2827 11.3565C92.9654 11.063 92.5085 10.9162 91.9119 10.9162C91.2822 10.9162 90.7827 11.0535 90.4134 11.3281C90.0488 11.6027 89.8026 11.9271 89.6747 12.3011L87.2741 11.9602C87.4635 11.2973 87.776 10.7434 88.2116 10.2983C88.6473 9.84848 89.1799 9.51231 89.8097 9.28977C90.4394 9.0625 91.1354 8.94886 91.8977 8.94886C92.4233 8.94886 92.9465 9.01042 93.4673 9.13352C93.9882 9.25663 94.464 9.46023 94.8949 9.74432C95.3258 10.0237 95.6714 10.4048 95.9318 10.8878C96.197 11.3707 96.3295 11.9744 96.3295 12.6989V20H93.858V18.5014H93.7727C93.6165 18.8045 93.3963 19.0885 93.1122 19.3537C92.8329 19.6141 92.4801 19.8248 92.054 19.9858C91.6326 20.142 91.1378 20.2202 90.5696 20.2202ZM91.2372 18.331C91.7533 18.331 92.2008 18.2292 92.5795 18.0256C92.9583 17.8172 93.2495 17.5426 93.4531 17.2017C93.6615 16.8608 93.7656 16.4891 93.7656 16.0866V14.8011C93.6851 14.8674 93.5478 14.929 93.3537 14.9858C93.1643 15.0426 92.9512 15.0923 92.7145 15.1349C92.4777 15.1776 92.2434 15.2154 92.0114 15.2486C91.7794 15.2817 91.5781 15.3101 91.4077 15.3338C91.0241 15.3859 90.6809 15.4711 90.3778 15.5895C90.0748 15.7079 89.8357 15.8736 89.6605 16.0866C89.4853 16.295 89.3977 16.5649 89.3977 16.8963C89.3977 17.3698 89.5705 17.7273 89.9162 17.9688C90.2618 18.2102 90.7022 18.331 91.2372 18.331ZM107.537 11.9744L105.193 12.2301C105.127 11.9934 105.011 11.7708 104.845 11.5625C104.684 11.3542 104.466 11.1861 104.192 11.0582C103.917 10.9304 103.581 10.8665 103.183 10.8665C102.648 10.8665 102.198 10.9825 101.834 11.2145C101.474 11.4465 101.296 11.7472 101.301 12.1165C101.296 12.4337 101.412 12.6918 101.649 12.8906C101.891 13.0895 102.288 13.2528 102.842 13.3807L104.703 13.7784C105.735 14.0009 106.502 14.3537 107.004 14.8366C107.511 15.3196 107.767 15.9517 107.771 16.733C107.767 17.4195 107.565 18.0256 107.168 18.5511C106.775 19.072 106.228 19.4792 105.527 19.7727C104.826 20.0663 104.021 20.2131 103.112 20.2131C101.777 20.2131 100.702 19.9337 99.8878 19.375C99.0734 18.8116 98.5881 18.0279 98.4318 17.0241L100.939 16.7827C101.053 17.2751 101.294 17.6468 101.663 17.8977C102.033 18.1487 102.513 18.2741 103.105 18.2741C103.716 18.2741 104.206 18.1487 104.575 17.8977C104.949 17.6468 105.136 17.3366 105.136 16.9673C105.136 16.6548 105.016 16.3968 104.774 16.1932C104.537 15.9896 104.168 15.8333 103.666 15.7244L101.805 15.3338C100.759 15.116 99.9848 14.7491 99.483 14.233C98.9811 13.7121 98.7325 13.054 98.7372 12.2585C98.7325 11.5862 98.9148 11.0038 99.2841 10.5114C99.6581 10.0142 100.177 9.63068 100.839 9.3608C101.507 9.08617 102.277 8.94886 103.148 8.94886C104.426 8.94886 105.432 9.22112 106.166 9.76562C106.905 10.3101 107.362 11.0464 107.537 11.9744ZM109.891 20V9.09091H112.462V20H109.891ZM111.184 7.54261C110.777 7.54261 110.426 7.40767 110.133 7.13778C109.839 6.86316 109.692 6.53409 109.692 6.15057C109.692 5.76231 109.839 5.43324 110.133 5.16335C110.426 4.88873 110.777 4.75142 111.184 4.75142C111.596 4.75142 111.946 4.88873 112.235 5.16335C112.529 5.43324 112.675 5.76231 112.675 6.15057C112.675 6.53409 112.529 6.86316 112.235 7.13778C111.946 7.40767 111.596 7.54261 111.184 7.54261Z" fill="white"/>
</svg>
