<svg width="1440" height="1024" viewBox="0 0 1440 1024" fill="none" xmlns="http://www.w3.org/2000/svg">
<g style="mix-blend-mode:color-burn">
<path d="M1030.9 205.069C1071.21 188.193 1086.52 146.823 1060.17 123.206C1005.97 74.608 782.841 98.6147 772.342 131.557C762 164.011 946.798 240.293 1030.9 205.069Z" stroke="#344A3C" stroke-width="10" stroke-miterlimit="10"/>
<path d="M931.031 313.162C838.964 345.411 684.373 115.803 748.184 61.5953C787.417 28.2632 882.392 32.4284 959.843 43.3831C1032.55 53.6646 1136.45 95.7079 1162.08 165.533C1175.65 202.601 1167.5 255.413 1138.76 273.908C1116.51 288.219 1086.48 281.78 1079.85 284.161C1048.27 271.06 1043.64 265.968 1018.47 262.895C985.582 258.876 956.35 304.295 931.031 313.162Z" stroke="#344A3C" stroke-width="10" stroke-miterlimit="10"/>
<path d="M837.617 426.093C730.69 409.022 614.493 73.6521 730.485 -3.52783C804.355 -52.6822 933.138 -30.9777 1022.9 -4.99097C1105.36 18.879 1242.66 98.5368 1270.44 212.697C1286.59 279.03 1266.97 372.344 1210.75 399.336C1165.93 420.845 1108.19 402.35 1098.02 400.926C1037.93 368.598 1033.07 352.152 988.324 341.08C929.079 326.438 882.304 433.263 837.617 426.093Z" stroke="#344A3C" stroke-width="10" stroke-miterlimit="10"/>
<path d="M750.975 538.273C632.915 506.804 551.385 31.0238 719.557 -69.3921C828.094 -134.193 990.724 -95.3205 1092.73 -54.1064C1185.02 -16.8334 1355.15 100.458 1385.57 259.12C1403.92 354.805 1373.3 488.416 1289.51 524.021C1222.19 552.642 1136.21 523.27 1122.98 516.949C1030.48 472.731 1029.31 437.594 964.917 418.523C879.377 393.122 812.805 554.72 750.975 538.273Z" stroke="#344A3C" stroke-width="10" stroke-miterlimit="10"/>
<path d="M669.542 645.352C538.798 599.953 493.701 -16.2285 713.839 -140.368C857.19 -220.484 1053.6 -164.872 1167.77 -108.343C1269.98 -57.745 1472.73 97.171 1505.95 300.441C1526.38 425.391 1484.88 599.348 1373.52 643.625C1283.65 679.327 1170.12 637.45 1153.17 627.9C1033.94 560.709 1030.86 517.788 946.827 490.855C834.973 454.694 747.804 672.519 669.542 645.352Z" stroke="#344A3C" stroke-width="10" stroke-miterlimit="10"/>
<path d="M1461.19 761.804C1348.81 804.579 1207.79 750.255 1187.02 737.417C1041.37 647.4 1035.99 596.88 932.358 561.831C794.169 515.096 685.886 789.703 591.838 751.074C447.375 691.736 439.267 -65.6367 711.849 -212.7C889.71 -308.658 1120.28 -235.848 1246.53 -163.926C1358.66 -100.061 1593.88 92.479 1629.99 340.397C1652.43 494.601 1600.14 708.923 1461.19 761.804Z" stroke="#344A3C" stroke-width="10" stroke-miterlimit="10"/>
<path d="M245.112 839.843C289.38 840.213 342.467 916.974 302.766 929.792C279.837 937.205 219.129 925.48 195.283 904.614C161.699 875.252 214.65 839.579 245.112 839.843Z" stroke="#344A3C" stroke-width="10" stroke-miterlimit="10"/>
<path d="M365.416 919.042C361.084 929.343 340.799 933.918 322.29 946.463C284.745 971.923 279.359 984.018 252.693 999.372C242.292 1005.37 228.3 1013.25 214.641 1009.64C193.722 1004.11 188.501 980.175 161.953 938.015C127.53 883.232 114.494 869.068 124.33 840.038C126.622 833.287 129.589 811.427 146.166 798.092C169.124 779.655 196.034 793.897 229.676 781.694C270.08 767.062 290.111 741.017 307.644 752.527C319.997 760.634 320.456 782.836 329.705 821.494C336.75 850.944 341.18 870.268 349.746 886.032C360.02 904.8 370.236 907.59 365.416 919.042Z" stroke="#344A3C" stroke-width="10" stroke-miterlimit="10"/>
<path d="M433.081 897.571C432.33 915.832 403.644 924.67 380.003 951.057C331.52 1005.19 353.981 1043.86 315.118 1083.41C298.629 1100.2 272.753 1116.46 246.819 1113.31C210.016 1108.83 197.654 1070.82 140.994 993.744C66.9191 892.977 35.3649 873.243 42.2826 819.543C43.6974 808.598 45.073 766.574 74.0222 741.28C112.631 707.548 158.908 738.237 219.353 712.884C286.891 684.595 312.133 624.115 334.906 636.631C350.722 645.322 344.663 680.322 356.82 748.586C365.426 797.107 370.743 825.464 387.945 848.69C409.654 877.984 433.891 877.74 433.081 897.571Z" stroke="#344A3C" stroke-width="10" stroke-miterlimit="10"/>
<path d="M500.814 876.335C503.741 902.507 466.596 915.667 437.784 955.895C378.461 1038.71 429.607 1103.45 377.612 1167.69C355.356 1195.18 317.187 1219.77 279.066 1217.21C226.232 1213.66 206.708 1161.86 120.027 1049.71C6.06457 903.171 -43.0135 877.369 -39.7937 799.282C-39.1594 784.055 -39.452 721.975 1.84954 684.673C56.1181 635.675 121.861 682.868 208.991 644.288C303.732 602.343 334.096 507.458 362.177 520.939C381.447 530.264 369.104 578.024 383.945 675.894C394.189 743.485 400.366 780.738 426.163 811.563C459.415 851.285 497.682 848.144 500.814 876.335Z" stroke="#344A3C" stroke-width="10" stroke-miterlimit="10"/>
<path d="M568.704 855.158C575.27 889.212 529.773 906.741 495.721 960.783C425.685 1072.34 505.624 1162.87 440.252 1252.02C412.308 1290.16 361.747 1323.1 311.459 1321.16C242.555 1318.51 216.182 1252.75 99.2538 1105.72C-54.234 913.16 -121.031 881.359 -121.626 779.07C-121.743 759.561 -123.675 677.484 -70.0697 628.124C-0.0727428 563.918 85.0086 627.588 198.883 575.741C320.846 520.197 356.332 390.82 389.603 405.296C412.337 415.226 393.701 475.784 411.225 603.25C423.138 689.921 430.134 736.022 464.528 774.485C509.351 824.586 561.64 818.538 568.704 855.158Z" stroke="#344A3C" stroke-width="10" stroke-miterlimit="10"/>
<path d="M636.72 833.99C625.724 788.923 559.434 797.897 503.049 737.417C460.049 691.306 452.234 636.377 438.652 530.616C418.484 373.563 443.384 300.198 417.187 289.672C378.676 274.191 338.077 438.072 188.872 507.204C48.3124 572.327 -56.2829 492.045 -141.891 571.586C-207.888 632.914 -204.219 734.988 -203.36 758.878C-198.813 885.339 -114.406 923.168 78.6177 1161.75C225.803 1343.67 258.996 1423.36 344.009 1425.13C406.454 1426.43 469.436 1385.14 503.049 1336.36C581.759 1222.23 472.87 1105.85 553.785 965.68C592.999 897.757 646.955 875.916 636.72 833.99Z" stroke="#344A3C" stroke-width="10" stroke-miterlimit="10"/>
<path d="M74.1785 108.623C85.7308 114.476 109.987 103.199 112.133 85.6311C114.563 65.7021 87.1163 49.2165 75.0566 54.3378C60.7918 60.4053 58.8502 100.878 74.1785 108.623Z" stroke="#344A3C" stroke-width="10" stroke-miterlimit="10"/>
<path d="M41.629 2.73486C21.9393 21.1422 13.3334 54.923 3.48858 112.828C-6.26845 170.244 -4.73653 211.351 3.83989 214.336C8.51351 215.945 21.7538 203.352 33.111 194.124C54.3716 176.897 90.7654 178.809 100.093 176.946C134.243 170.117 144.273 157.436 158.548 133.147C165.153 121.929 180.559 97.0539 187.34 67.7896C197.683 23.4735 244.039 9.81695 238.389 -7.94653C233.638 -22.7738 187.711 -26.3735 157.933 -26.793C115.255 -27.3978 72.0709 -25.6906 41.629 2.73486Z" stroke="#344A3C" stroke-width="10" stroke-miterlimit="10"/>
<path d="M7.49883 -46.7512C-24.8652 -13.858 -37.5979 41.3443 -57.2096 144.579C-77.1334 248.312 -77.0067 319.463 -67.1911 322.117C-59.8246 324.146 -35.9687 298.5 -15.6936 280.171C22.5247 245.473 90.9411 251.18 105.04 248.956C169.339 239.025 185.184 215.233 210.104 170.264C220.485 151.535 248.966 105.882 261.943 51.9673C281.915 -30.6266 376.607 -52.2529 368.772 -82.8732C362.225 -108.372 274.412 -112.284 219.158 -110.187C141.141 -107.153 62.187 -102.354 7.49883 -46.7512Z" stroke="#344A3C" stroke-width="10" stroke-miterlimit="10"/>
<path d="M-26.4458 -95.9154C-71.5135 -48.5461 -88.2274 28.1168 -117.713 176.653C-147.657 326.731 -149.053 427.761 -138.027 430.278C-127.929 432.619 -93.4766 393.99 -64.3421 366.511C-9.2637 314.254 91.2629 323.863 110.143 321.346C204.571 308.743 226.32 273.499 261.816 207.751C275.983 181.521 317.519 115.081 336.711 36.5449C366.284 -84.3365 509.322 -113.913 499.321 -157.4C490.969 -193.571 361.25 -197.95 280.54 -193.161C167.202 -186.771 52.3618 -178.753 -26.4458 -95.9154Z" stroke="#344A3C" stroke-width="10" stroke-miterlimit="10"/>
<path d="M-60.2832 -145.05C-118.084 -83.2049 -138.759 14.9283 -178.119 208.766C-218.123 405.169 -221.05 536.049 -208.775 538.478C-195.935 541.043 -150.867 489.587 -112.893 452.938C-40.8471 383.24 91.6728 396.653 115.334 393.775C239.892 378.665 267.709 331.881 313.626 245.288C331.637 211.575 386.169 124.328 411.557 21.1616C450.761 -137.998 642.145 -175.534 629.949 -231.888C619.811 -278.711 448.185 -283.383 342.009 -276.106C193.4 -266.088 42.6047 -255.153 -60.2832 -145.05Z" stroke="#344A3C" stroke-width="10" stroke-miterlimit="10"/>
<path d="M120.573 466.234C275.251 448.675 308.884 390.147 365.474 282.844C387.233 241.591 454.868 133.595 486.462 5.80762C535.247 -191.649 775.006 -237.136 760.634 -306.346C748.692 -363.899 535.169 -368.777 403.527 -359.022C219.587 -345.365 32.8671 -331.533 -94.0816 -194.166C-164.615 -117.834 -189.242 1.73988 -238.486 240.898C-288.471 483.637 -292.93 644.337 -279.465 646.698C-263.854 649.429 -208.239 585.242 -161.405 539.395C-72.3819 452.265 92.1216 469.463 120.573 466.234Z" stroke="#344A3C" stroke-width="10" stroke-miterlimit="10"/>
<path d="M1378.25 935.44C1360.69 868.132 1234.63 899.747 1084.57 748.148C1030.8 693.823 994.744 637.001 923.576 628.164C916.395 627.276 845.101 619.482 794.784 665.232C731.48 722.785 770.118 802.628 696.238 913.979C669.025 954.998 664.498 943.087 644.525 975.434C559.288 1113.51 689.291 1253.69 614.279 1393.92C579.749 1458.46 528.417 1473.28 533.295 1481.71C554.351 1517.87 1425.71 1116.81 1378.25 935.44Z" stroke="#344A3C" stroke-width="10" stroke-miterlimit="10"/>
<path d="M904.062 720.18C899.75 720.766 852.74 717.254 820.493 749.601C779.719 790.444 808.785 846.681 762.068 922.602C744.876 950.559 742.486 942.98 730.251 965.094C678.051 1059.46 771.738 1154.4 725.86 1246.77C704.629 1289.54 671.113 1299.34 676.099 1303.52C698.648 1322.56 1273.8 1041.26 1228.62 918.856C1211.68 872.95 1119.21 889.241 1013.41 790.366C974.938 754.439 948.886 714.103 904.062 720.18Z" stroke="#344A3C" stroke-width="10" stroke-miterlimit="10"/>
<path d="M884.548 812.207C883.319 815.3 860.331 815.231 846.203 833.97C827.86 858.279 847.394 890.665 827.899 931.216C820.747 946.102 820.455 942.922 815.966 954.754C796.696 1005.64 854.263 1055.04 837.432 1099.64C829.558 1120.63 814.922 1124.21 818.825 1125.34C847.355 1121.29 1121.29 965.436 1079.04 902.273C1062.54 877.594 1003.48 878.774 942.3 832.585C919.049 815.026 903.828 802.17 884.548 812.207Z" stroke="#344A3C" stroke-width="10" stroke-miterlimit="10"/>
<path d="M865.034 904.224C880.177 948.462 939.793 963.504 961.629 947.145C993.827 922.993 966.361 891.543 929.431 885.69C901.828 881.349 847.706 853.597 865.034 904.224Z" stroke="#344A3C" stroke-width="10" stroke-miterlimit="10"/>
</g>
</svg>
