<svg width="1440" height="1024" viewBox="0 0 1440 1024" fill="none" xmlns="http://www.w3.org/2000/svg">
<g style="mix-blend-mode:color-burn">
<path d="M701.645 -172.531C707.183 -215.875 679.01 -249.818 645.385 -238.811C576.198 -216.172 485.421 -10.9291 508.701 14.6338C531.636 39.8178 690.097 -82.0808 701.645 -172.531Z" stroke="#344A3C" stroke-width="10" stroke-miterlimit="10"/>
<path d="M745.319 -31.9918C727.215 63.8655 451.073 82.9406 436.033 0.574971C426.783 -50.0679 477.878 -130.236 526.091 -191.834C571.349 -249.661 659.706 -318.613 732.992 -305.898C771.88 -299.118 813.544 -265.656 815.189 -231.515C816.459 -205.095 795.867 -182.305 794.616 -175.378C767.479 -154.576 760.752 -153.108 745.509 -132.852C725.583 -106.377 750.3 -58.3527 745.319 -31.9918Z" stroke="#344A3C" stroke-width="10" stroke-miterlimit="10"/>
<path d="M796.414 105.373C728.167 189.439 379.629 122.383 370.785 -16.6587C365.152 -105.21 448.34 -205.887 515.727 -270.632C577.628 -330.106 715.264 -409.184 828.019 -376.16C893.538 -356.978 964.54 -293.328 959.806 -231.145C956.026 -181.58 911.138 -140.821 904.821 -132.729C846.778 -96.85 830.105 -100.865 798.144 -67.6501C755.841 -23.6637 824.967 70.2572 796.414 105.373Z" stroke="#344A3C" stroke-width="10" stroke-miterlimit="10"/>
<path d="M850.244 236.497C763.961 323.006 311.158 155.722 308.281 -40.127C306.431 -166.524 421.41 -287.929 508.108 -355.665C586.528 -416.947 773.172 -505.641 925.789 -452.657C1017.83 -420.708 1118.23 -327.379 1107.17 -237.017C1098.3 -164.403 1029.87 -104.629 1017.78 -96.3316C933.237 -38.3365 902.222 -54.8909 853.508 -8.65733C788.74 52.7216 895.402 191.174 850.244 236.497Z" stroke="#344A3C" stroke-width="10" stroke-miterlimit="10"/>
<path d="M902.26 360.559C797.571 451.087 241.394 182.052 243.956 -70.6634C246.248 -234.866 392.614 -377.156 498.653 -447.763C593.58 -510.984 829.116 -609.114 1021.77 -536.25C1140.18 -491.461 1270.09 -368.545 1252.75 -249.969C1238.74 -154.286 1145.7 -76.9024 1128.96 -67C1011.16 2.66149 972.443 -16.1289 907.105 43.1746C819.861 121.963 964.918 306.366 902.26 360.559Z" stroke="#344A3C" stroke-width="10" stroke-miterlimit="10"/>
<path d="M1398.93 -266.801C1379.79 -148.088 1262.23 -53.1249 1240.73 -41.5539C1089.95 39.5682 1043.5 18.9724 961.337 91.1936C851.769 187.501 1035.44 418.581 954.966 480.714C831.346 576.153 171.389 204.489 180.319 -105.106C186.147 -307.117 364.487 -470.39 489.901 -543.769C601.273 -608.943 885.629 -716.381 1118.38 -623.686C1263.15 -566.019 1422.61 -413.575 1398.93 -266.801Z" stroke="#344A3C" stroke-width="10" stroke-miterlimit="10"/>
<path d="M858.479 825.372C880.934 787.22 973.954 779.625 965.204 820.416C960.16 843.98 919.652 890.692 889.659 900.911C847.438 915.314 843.02 851.621 858.479 825.372Z" stroke="#344A3C" stroke-width="10" stroke-miterlimit="10"/>
<path d="M987.22 760.785C993.975 769.687 987.794 789.542 989.404 811.844C992.68 857.089 1000.46 867.801 1000.43 898.571C1000.42 910.578 1000.25 926.637 990.296 936.662C975.047 952.013 951.705 944.564 901.919 946.476C837.264 948.896 818.48 953.103 798.257 930.07C793.557 924.709 776.109 911.21 772.849 890.186C768.362 861.086 794.15 844.902 800.403 809.665C807.933 767.359 795.393 736.989 814.128 727.559C827.325 720.915 846.781 731.619 884.885 742.938C913.912 751.562 932.862 757.388 950.797 757.85C972.188 758.337 979.712 750.885 987.22 760.785Z" stroke="#344A3C" stroke-width="10" stroke-miterlimit="10"/>
<path d="M1002.46 691.45C1017.9 701.232 1011.21 730.493 1022.24 764.16C1044.87 833.212 1089.6 833.1 1104.42 886.528C1110.71 909.202 1111.86 939.742 1096.16 960.626C1073.88 990.26 1034.78 981.959 939.703 992.491C815.398 1006.26 782.531 1023.72 739.484 990.877C730.713 984.18 695.007 961.976 687.577 924.259C677.668 873.957 727.384 849.223 735.65 784.2C744.92 711.566 705.164 659.467 727.389 646.002C742.824 636.651 770.106 659.398 835.303 683.002C881.626 699.809 908.842 709.383 937.558 706.099C973.781 701.945 985.689 680.833 1002.46 691.45Z" stroke="#344A3C" stroke-width="10" stroke-miterlimit="10"/>
<path d="M1017.93 622.174C1042.06 632.725 1034.89 671.473 1055.32 716.54C1097.38 809.324 1179.01 797.396 1208.65 874.548C1221.33 907.566 1223.55 952.918 1202.26 984.649C1172.77 1028.63 1118.15 1019.64 977.685 1038.63C793.799 1064.06 746.915 1093.66 680.9 1051.83C668.03 1043.66 614.121 1012.88 602.467 958.459C587.168 886.961 660.91 853.623 671.064 758.876C682.108 655.856 615.117 582.117 640.833 564.539C658.544 552.513 693.734 587.082 785.912 623.165C849.57 648.088 884.92 661.366 924.514 654.437C975.54 645.501 991.953 610.79 1017.93 622.174Z" stroke="#344A3C" stroke-width="10" stroke-miterlimit="10"/>
<path d="M1033.54 552.791C1066.31 564.131 1058.75 612.297 1088.52 668.808C1150.11 785.239 1268.49 761.277 1313.01 862.465C1332.07 905.736 1335.31 965.989 1308.49 1008.57C1271.74 1066.92 1201.61 1056.88 1015.81 1084.63C772.301 1121.27 711.362 1163.22 622.48 1112.59C605.525 1102.94 533.479 1063.57 517.535 992.468C496.929 899.746 594.61 857.898 606.646 733.357C619.525 599.962 525.224 504.541 554.396 482.965C574.363 468.242 617.49 514.66 736.64 563.217C817.656 596.236 861.079 613.228 911.586 602.674C977.386 588.905 998.293 540.599 1033.54 552.791Z" stroke="#344A3C" stroke-width="10" stroke-miterlimit="10"/>
<path d="M1049.21 483.303C1004.69 470.292 979.314 532.188 898.744 550.78C837.312 564.963 785.834 544.266 687.451 503.148C541.356 442.087 490.269 383.84 468.055 401.265C435.393 426.877 557.018 543.977 542.286 707.758C528.404 862.048 406.58 912.489 432.66 1026.4C452.774 1114.22 543.007 1162.08 564.126 1173.28C675.917 1232.57 750.882 1178.39 1054.01 1130.51C1285.15 1094.01 1370.77 1105.11 1414.8 1032.37C1447.15 978.938 1442.88 903.748 1417.45 850.252C1357.96 725.021 1202.72 761.129 1121.79 620.971C1082.58 553.05 1090.64 495.402 1049.21 483.303Z" stroke="#344A3C" stroke-width="10" stroke-miterlimit="10"/>
<path d="M139.758 607.795C150.603 600.717 152.965 574.072 138.824 563.429C122.779 551.36 94.779 566.887 93.1843 579.892C91.3065 595.279 125.386 617.197 139.758 607.795Z" stroke="#344A3C" stroke-width="10" stroke-miterlimit="10"/>
<path d="M31.7811 583.039C37.8774 609.295 62.8296 633.638 108.054 671.116C152.9 708.274 189.265 727.501 196.138 721.566C199.869 718.324 195.583 700.56 193.27 686.111C188.981 659.085 208.834 628.523 211.884 619.513C223.045 586.525 217.078 571.498 203.18 546.991C196.768 535.661 182.929 509.882 160.976 489.377C127.768 458.262 139.119 411.289 120.911 407.299C105.694 404.001 79.6135 441.974 64.3611 467.554C42.4987 504.211 22.3848 542.463 31.7811 583.039Z" stroke="#344A3C" stroke-width="10" stroke-miterlimit="10"/>
<path d="M-28.1402 587.854C-15.8359 632.329 25.6044 670.957 105.203 739.558C185.076 808.679 246.758 844.145 253.964 836.971C259.404 831.606 249.123 798.124 243.387 771.4C232.447 720.953 271.597 664.556 276.72 651.234C300.27 590.585 287.588 564.966 261.103 520.901C250.073 502.545 224.778 455.054 184.574 416.858C123.032 358.265 151.649 265.446 121.214 256.921C95.8577 249.841 48.5635 323.934 22.7528 372.834C-13.6285 441.916 -48.9492 512.691 -28.1402 587.854Z" stroke="#344A3C" stroke-width="10" stroke-miterlimit="10"/>
<path d="M-87.6899 592.669C-69.2008 655.383 -11.1657 708.189 102.728 807.993C217.726 908.964 304.524 960.688 312.216 952.398C319.293 944.823 303.065 895.672 293.835 856.701C276.118 782.873 334.703 700.619 341.963 683.01C378.263 594.931 358.615 558.474 319.424 494.86C303.791 469.476 267.02 400.285 208.602 344.396C118.703 258.344 164.608 119.681 121.946 106.599C86.4456 95.7464 17.7928 205.897 -18.4143 278.189C-69.5498 379.537 -120.026 483.001 -87.6899 592.669Z" stroke="#344A3C" stroke-width="10" stroke-miterlimit="10"/>
<path d="M-147.161 597.405C-122.501 678.385 -47.853 745.357 100.335 876.362C250.423 1009.21 362.305 1077.18 370.546 1067.77C379.188 1057.93 357.159 993.172 344.407 941.961C320.07 844.718 397.946 736.659 407.284 714.73C456.478 599.304 429.87 551.822 377.836 468.76C357.646 436.305 309.354 345.456 232.703 271.886C114.469 158.355 177.654 -26.1571 122.752 -43.7715C77.1332 -58.4036 -12.7264 87.8926 -59.5123 183.482C-125.141 317.191 -191.068 453.251 -147.161 597.405Z" stroke="#344A3C" stroke-width="10" stroke-miterlimit="10"/>
<path d="M472.655 746.421C534.788 603.687 500.917 545.296 436.285 442.635C411.438 403.166 351.729 290.594 256.858 199.339C110.249 58.362 190.736 -172.019 123.612 -194.178C67.798 -212.612 -43.1874 -30.1342 -100.56 88.7484C-180.703 254.873 -262.084 423.494 -206.595 602.118C-175.757 701.367 -84.5161 782.482 97.9792 944.707C283.204 1109.37 420.145 1193.58 428.922 1183.1C439.093 1170.94 411.314 1090.68 395.025 1027.2C364.08 906.541 461.226 772.676 472.655 746.421Z" stroke="#344A3C" stroke-width="10" stroke-miterlimit="10"/>
<path d="M1507.84 -108.159C1440.77 -126.604 1405.12 -1.62425 1198.8 52.5346C1124.86 71.9394 1057.63 74.7507 1014.39 131.965C1010.03 137.74 967.635 195.586 982.098 262.037C1000.29 345.636 1088.75 352.096 1148.25 471.754C1170.16 515.83 1157.58 513.795 1175.61 547.266C1252.57 690.123 1438.97 647.625 1522.9 782.7C1561.54 844.878 1548.7 896.741 1558.44 896.731C1600.29 896.576 1688.64 -58.574 1507.84 -108.159Z" stroke="#344A3C" stroke-width="10" stroke-miterlimit="10"/>
<path d="M1084.32 194.873C1082.67 198.9 1056.13 237.856 1068.02 281.956C1083 337.69 1146.24 340.636 1188.63 419.054C1204.24 447.922 1196.49 446.202 1209.52 467.855C1265.14 560.246 1394.2 526.577 1451.27 612.497C1477.69 652.267 1469.42 686.194 1475.53 683.963C1503.29 673.956 1547.25 35.2145 1418.66 13.1356C1370.44 4.85152 1338.31 93.0758 1199.78 135.269C1149.43 150.623 1101.47 153.016 1084.32 194.873Z" stroke="#344A3C" stroke-width="10" stroke-miterlimit="10"/>
<path d="M1154.26 257.786C1156.33 260.397 1144.77 280.27 1153.94 301.875C1165.82 329.915 1203.63 329.192 1229 366.35C1238.32 379.987 1235.42 378.65 1243.42 388.453C1277.86 430.587 1349.42 405.432 1379.63 442.308C1393.87 459.623 1389.66 474.088 1392.58 471.269C1403.34 444.537 1405.34 129.373 1329.51 134.388C1299.88 136.337 1271.38 188.074 1200.79 217.96C1173.96 229.317 1155.21 236.07 1154.26 257.786Z" stroke="#344A3C" stroke-width="10" stroke-miterlimit="10"/>
<path d="M1224.2 320.694C1270.08 329.699 1312.91 285.592 1309.66 258.501C1304.85 218.54 1263.88 226.602 1240.34 255.658C1222.78 277.392 1171.69 310.387 1224.2 320.694Z" stroke="#344A3C" stroke-width="10" stroke-miterlimit="10"/>
</g>
</svg>
