<svg width="1440" height="1024" viewBox="0 0 1440 1024" fill="none" xmlns="http://www.w3.org/2000/svg">
<g style="mix-blend-mode:color-burn">
<path d="M218.025 772.599C174.378 774.671 145.843 808.311 162.521 839.513C196.831 903.718 414.719 957.475 435.851 930.111C456.67 903.151 309.106 768.264 218.025 772.599Z" stroke="#344A3C" stroke-width="10" stroke-miterlimit="10"/>
<path d="M348.845 705.183C446.39 706.368 513.127 975.002 434.624 1004.12C386.357 1022.02 298.534 985.622 229.5 948.838C164.692 914.308 81.4449 839.267 81.2404 764.887C81.165 725.412 106.884 678.571 140.22 671.022C166.019 665.184 192.038 681.505 199.077 681.535C224.275 704.647 226.889 711.017 249.484 722.511C279.017 737.537 322.02 704.856 348.845 705.183Z" stroke="#344A3C" stroke-width="10" stroke-miterlimit="10"/>
<path d="M475.25 631.012C569.89 683.625 564.376 1038.51 428.982 1071.36C342.755 1092.29 229.162 1027.85 153.699 972.727C84.379 922.095 -17.3971 800.281 -4.45499 683.505C3.05805 615.65 53.4115 534.674 115.473 528.538C164.941 523.654 212.875 560.782 221.941 565.598C267.354 616.529 266.295 633.645 304.556 659.353C355.22 693.375 435.71 608.991 475.25 631.012Z" stroke="#344A3C" stroke-width="10" stroke-miterlimit="10"/>
<path d="M595.035 555.231C695.212 625.181 609.099 1100.15 416.724 1136.99C292.569 1160.77 153.042 1068.61 71.2807 994.997C-2.68784 928.409 -122.445 760.002 -96.767 600.504C-81.287 504.312 -6.80892 389.234 84.0995 384.432C157.152 380.563 227.9 437.57 238.171 448.035C309.965 521.223 299.048 554.641 353.038 594.586C424.732 647.712 542.559 518.629 595.035 555.231Z" stroke="#344A3C" stroke-width="10" stroke-miterlimit="10"/>
<path d="M708.179 482.461C815.512 569.839 647.142 1164.28 397.822 1205.65C235.715 1231.9 70.1718 1112.47 -17.776 1020.3C-96.5207 937.794 -234.06 722.876 -195.757 520.501C-172.211 396.103 -73.7203 246.829 46.0647 243.309C142.728 240.497 235.091 318.68 247.75 333.45C336.81 437.368 325.027 478.756 394.776 532.803C487.517 605.04 643.93 430.166 708.179 482.461Z" stroke="#344A3C" stroke-width="10" stroke-miterlimit="10"/>
<path d="M4.10443 102.273C124.338 100.514 238.272 199.794 253.401 218.961C359.474 353.363 347.256 402.678 432.648 471.057C546.519 562.237 742.193 341.226 817.357 409.691C932.813 514.86 681.395 1229.33 374.953 1274.3C174.999 1303.64 -16.7616 1156.36 -110.805 1045.59C-194.327 947.227 -349.511 685.848 -298.642 440.534C-266.989 287.954 -144.552 104.441 4.10443 102.273Z" stroke="#344A3C" stroke-width="10" stroke-miterlimit="10"/>
<path d="M1173.53 444.863C1132.06 429.375 1108.43 339.086 1150.12 340.62C1174.2 341.496 1227.24 373.277 1242.51 401.04C1264.03 440.118 1202.07 455.529 1173.53 444.863Z" stroke="#344A3C" stroke-width="10" stroke-miterlimit="10"/>
<path d="M1087.57 329.294C1095.17 321.096 1115.79 323.735 1137.48 318.277C1181.46 307.193 1190.66 297.669 1220.97 292.361C1232.8 290.281 1248.64 287.66 1260.24 295.724C1278.01 308.076 1274.73 332.356 1285.25 381.054C1298.86 444.306 1306.27 462.074 1287.1 485.99C1282.64 491.549 1272.37 511.077 1252.23 517.938C1224.35 527.41 1203.94 504.823 1168.15 504.784C1125.18 504.715 1097.45 522.339 1084.91 505.525C1076.07 493.683 1083.24 472.663 1087.77 433.173C1091.22 403.09 1093.67 383.416 1091.01 365.673C1087.77 344.523 1079.13 338.407 1087.57 329.294Z" stroke="#344A3C" stroke-width="10" stroke-miterlimit="10"/>
<path d="M1016.64 326.327C1023.6 309.424 1053.57 310.93 1084.82 294.221C1148.89 259.938 1141.01 215.91 1191.05 192.041C1212.29 181.905 1242.17 175.475 1265.46 187.305C1298.51 204.1 1297.13 244.05 1324.01 335.854C1359.15 455.879 1382.05 485.215 1357.19 533.31C1352.12 543.111 1336.45 582.13 1300.6 595.998C1252.78 614.491 1219.79 569.825 1154.32 572.975C1081.18 576.459 1036.77 624.658 1019.65 605.109C1007.76 591.532 1025.43 560.715 1037.35 492.41C1045.86 443.872 1050.56 415.406 1042.34 387.698C1031.96 352.745 1009.1 344.685 1016.64 326.327Z" stroke="#344A3C" stroke-width="10" stroke-miterlimit="10"/>
<path d="M945.733 323.116C951.934 297.521 991.34 297.86 1032.17 269.912C1116.24 212.378 1090.32 134.056 1161.16 91.4683C1191.47 73.249 1235.75 63.1949 1270.69 78.6438C1319.13 100.051 1319.76 155.402 1362.85 290.437C1419.82 467.113 1457.12 508.144 1427.38 580.421C1421.58 594.513 1400.62 652.949 1349.05 673.876C1281.3 701.358 1235.66 634.525 1140.59 640.978C1037.22 647.991 976.234 726.769 954.457 704.496C939.539 689.142 967.472 648.485 987 551.441C1000.49 484.422 1007.43 447.303 993.729 409.514C976.068 360.815 939.034 350.678 945.733 323.116Z" stroke="#344A3C" stroke-width="10" stroke-miterlimit="10"/>
<path d="M874.695 319.797C880.172 285.551 928.92 284.64 979.402 245.504C1083.37 164.629 1039.21 52.2138 1131.14 -9.20032C1170.44 -35.4839 1229.21 -49.1372 1275.81 -30.1228C1339.65 -4.06294 1341.94 66.7487 1401.53 244.907C1479.9 478.35 1531.79 531.079 1497.37 627.402C1490.81 645.775 1464.55 723.563 1397.3 751.612C1309.56 788.005 1251.39 699.076 1126.65 708.849C993.042 719.329 915.446 828.767 889.132 803.785C871.166 786.678 909.39 736.146 936.519 610.374C954.967 524.855 964.161 479.141 944.997 431.234C920.012 368.824 868.808 356.624 874.695 319.797Z" stroke="#344A3C" stroke-width="10" stroke-miterlimit="10"/>
<path d="M803.541 316.425C798.46 362.536 863.821 376.775 896.121 452.892C920.756 510.929 909.313 565.218 885.903 669.247C851.14 823.725 802.649 884.151 823.667 903.001C854.56 930.72 948.762 790.608 1112.61 776.676C1266.97 763.555 1337.8 874.769 1445.45 829.305C1528.44 794.247 1559.9 697.074 1567.27 674.332C1606.25 553.942 1539.87 489.525 1440.09 199.313C1364 -21.9736 1360.06 -108.217 1280.78 -138.952C1222.55 -161.529 1149.24 -144.268 1100.97 -109.932C987.974 -29.6038 1050.49 117.004 926.514 221.043C866.435 271.457 808.262 273.527 803.541 316.425Z" stroke="#344A3C" stroke-width="10" stroke-miterlimit="10"/>
<path d="M1084.07 1190.45C1075.21 1181 1048.56 1183.3 1040.54 1199.07C1031.44 1216.97 1051.59 1241.85 1064.67 1241.16C1080.15 1240.34 1095.82 1202.97 1084.07 1190.45Z" stroke="#344A3C" stroke-width="10" stroke-miterlimit="10"/>
<path d="M1078.44 1301.08C1103.24 1290.52 1122.88 1261.72 1151.93 1210.67C1180.74 1160.06 1193.36 1120.91 1186.32 1115.17C1182.48 1112.06 1165.73 1119.36 1151.9 1124.15C1126.03 1133.07 1092.49 1118.82 1083.08 1117.38C1048.66 1112.12 1034.89 1120.6 1013.17 1138.55C1003.13 1146.83 980.145 1164.93 963.763 1190.11C938.888 1228.22 890.657 1225.2 889.89 1243.82C889.284 1259.38 931.209 1278.47 959.048 1289.05C998.945 1304.22 1040.11 1317.38 1078.44 1301.08Z" stroke="#344A3C" stroke-width="10" stroke-miterlimit="10"/>
<path d="M1093.58 1359.26C1135.25 1339.42 1166.09 1291.9 1219.83 1201.6C1274.03 1110.93 1298.25 1044.03 1289.93 1038.18C1283.7 1033.75 1252.51 1049.69 1227.19 1059.98C1179.41 1079.52 1117.07 1050.75 1103.06 1048.02C1039.25 1035.36 1016.22 1052.3 977.421 1086.04C961.26 1100.08 918.883 1133.24 888.249 1179.47C841.232 1250.25 744.854 1238.18 741.743 1269.64C739.174 1295.84 820.354 1329.55 872.993 1346.48C947.343 1370.31 1023.18 1392.8 1093.58 1359.26Z" stroke="#344A3C" stroke-width="10" stroke-miterlimit="10"/>
<path d="M1108.67 1417.07C1167.22 1387.97 1209.14 1321.64 1287.65 1192.15C1367.12 1061.37 1402.99 966.905 1393.49 960.77C1384.8 955.116 1339.21 979.632 1302.44 995.489C1232.81 1025.76 1141.63 982.345 1123.03 978.253C1029.98 957.8 997.491 983.48 941.649 1033.12C919.365 1052.92 857.61 1101.15 812.715 1168.39C743.581 1271.86 599.053 1250.74 593.578 1295.02C589.055 1331.87 709.454 1380.35 786.934 1403.45C895.622 1436.21 1006.28 1467.95 1108.67 1417.07Z" stroke="#344A3C" stroke-width="10" stroke-miterlimit="10"/>
<path d="M1123.66 1474.81C1199.13 1436.46 1252.12 1351.32 1355.4 1182.63C1460.16 1011.76 1507.68 889.773 1496.98 883.292C1485.79 876.49 1425.84 909.429 1377.62 930.879C1286.08 971.733 1166.14 913.805 1142.92 908.416C1020.71 880.014 978.566 914.462 905.802 980.129C877.346 1005.65 796.263 1068.98 737.121 1157.24C645.846 1293.4 453.165 1263.21 445.352 1320.34C438.864 1367.8 598.541 1430.9 700.803 1460.37C843.877 1501.78 989.318 1543.08 1123.66 1474.81Z" stroke="#344A3C" stroke-width="10" stroke-miterlimit="10"/>
<path d="M1162.78 838.535C1011.42 802.132 959.803 845.628 869.925 927.105C835.37 958.428 734.876 1036.78 661.482 1146.05C548.105 1314.92 307.248 1275.66 297.082 1345.61C288.62 1403.78 487.597 1481.39 614.636 1517.25C792.154 1567.32 972.345 1618.19 1138.62 1532.52C1231.01 1484.92 1295.04 1380.98 1423.12 1173.09C1553.11 962.084 1612.26 812.6 1600.42 805.776C1586.68 797.87 1512.47 839.164 1452.78 866.229C1339.32 917.656 1190.62 845.232 1162.78 838.535Z" stroke="#344A3C" stroke-width="10" stroke-miterlimit="10"/>
<path d="M141.424 -32.526C134.907 36.7297 264.179 50.1364 353.342 243.918C385.29 313.357 399.734 379.082 463.587 411.728C470.031 415.018 534.361 446.726 597.291 420.945C676.461 388.514 667.461 300.271 774.97 220.904C814.571 191.666 814.751 204.406 844.583 180.841C971.906 80.2423 897.686 -95.944 1016.13 -202.057C1070.66 -250.902 1123.96 -247.269 1122.26 -256.858C1114.84 -298.039 158.861 -219.191 141.424 -32.526Z" stroke="#344A3C" stroke-width="10" stroke-miterlimit="10"/>
<path d="M513.396 331.935C517.649 332.86 560.622 352.238 601.987 332.871C654.272 308.436 646.193 245.65 716.059 190.285C741.776 169.894 741.43 177.834 760.491 161.238C841.819 90.4147 786.251 -30.8366 860.957 -101.952C895.534 -134.877 930.381 -132.626 927.124 -138.255C912.448 -163.86 275.776 -96.2373 276.362 34.2349C276.578 83.1657 369.041 99.4833 434.648 228.583C458.512 275.501 469.197 322.315 513.396 331.935Z" stroke="#344A3C" stroke-width="10" stroke-miterlimit="10"/>
<path d="M563.208 252.132C565.421 249.647 586.999 257.573 606.684 244.796C632.235 228.227 624.956 191.113 657.144 159.676C668.956 148.134 668.143 151.222 676.408 141.638C711.922 100.407 674.722 34.2991 705.792 -1.85366C720.371 -18.887 735.348 -17.2454 732.064 -19.6344C703.871 -25.588 393.148 27.1729 411.255 100.979C418.318 129.813 474.219 148.904 515.909 213.231C531.752 237.683 541.658 254.97 563.208 252.132Z" stroke="#344A3C" stroke-width="10" stroke-miterlimit="10"/>
<path d="M613.017 172.338C613.917 125.589 563.042 91.0646 536.928 98.9684C498.41 110.652 513.464 149.599 546.165 167.73C570.618 181.25 611.985 225.839 613.017 172.338Z" stroke="#344A3C" stroke-width="10" stroke-miterlimit="10"/>
</g>
</svg>
