<svg width="1440" height="1024" viewBox="0 0 1440 1024" fill="none" xmlns="http://www.w3.org/2000/svg">
<g style="mix-blend-mode:color-burn">
<path d="M403.894 47.9116C378.269 12.5177 334.497 7.04965 317.513 38.0863C282.56 101.944 356.834 313.718 391.302 316.425C425.26 319.091 457.376 121.764 403.894 47.9116Z" stroke="#344A3C" stroke-width="10" stroke-miterlimit="10"/>
<path d="M531.92 120.494C584.321 202.777 396.031 405.669 328.696 355.906C287.293 325.311 269.683 231.889 262.681 153.981C256.106 80.8436 273.341 -29.9006 335.478 -70.7846C368.473 -92.4546 421.751 -96.5696 446.316 -72.8023C465.323 -54.4072 465.906 -23.6983 469.734 -17.7909C464.184 15.9484 460.283 21.6224 463.032 46.8233C466.622 79.7638 517.511 97.8645 531.92 120.494Z" stroke="#344A3C" stroke-width="10" stroke-miterlimit="10"/>
<path d="M663.183 185.683C670.953 293.685 370.932 483.321 269.327 387.994C204.618 327.284 196.373 196.945 201.198 103.619C205.629 17.8914 251.866 -133.961 356.68 -187.048C417.58 -217.902 512.91 -220.084 552.015 -171.503C583.18 -132.778 578.344 -72.3389 579.276 -62.1152C561.51 3.76824 546.605 12.2509 546.033 58.3425C545.291 119.365 659.97 140.539 663.183 185.683Z" stroke="#344A3C" stroke-width="10" stroke-miterlimit="10"/>
<path d="M792.169 244.451C788.461 366.577 343.823 554.49 207.693 413.658C119.841 322.765 120.591 155.555 137.448 46.8332C152.688 -51.5183 228.077 -243.922 375.616 -309.735C464.591 -349.431 601.666 -350.09 655.445 -276.638C698.668 -217.618 689.684 -127.206 686.548 -112.882C664.595 -12.7375 630.651 -3.58228 626.773 63.4665C621.555 152.546 794.078 180.5 792.169 244.451Z" stroke="#344A3C" stroke-width="10" stroke-miterlimit="10"/>
<path d="M915 299.31C900.623 436.964 310.975 621.431 139.892 435.415C29.1881 314.12 38.5301 110.204 67.5255 -13.848C93.473 -124.91 198.054 -357.654 388.386 -436.369C505.383 -484.755 684.22 -484.035 752.731 -385.714C807.994 -306.356 793.119 -186.264 787.687 -167.584C749.466 -36.1696 708.38 -23.3767 701.325 64.5792C691.633 181.733 923.599 216.916 915 299.31Z" stroke="#344A3C" stroke-width="10" stroke-miterlimit="10"/>
<path d="M847.797 -498.028C915.08 -398.367 894.356 -248.675 886.596 -225.521C832.175 -63.1838 784.215 -46.4156 773.73 62.4767C759.75 207.683 1051.82 250.47 1035.66 350.85C1010.84 505.039 275.287 685.701 69.9215 453.853C-64.0791 302.571 -45.785 61.4732 -4.55998 -77.8604C32.0429 -201.6 165.849 -474.542 398.995 -566.245C544.014 -623.271 764.614 -621.251 847.797 -498.028Z" stroke="#344A3C" stroke-width="10" stroke-miterlimit="10"/>
<path d="M1201.18 668.184C1191.45 624.999 1254.07 555.801 1275.61 591.532C1288.06 612.165 1290.49 673.947 1275.61 701.924C1254.69 741.32 1207.87 697.903 1201.18 668.184Z" stroke="#344A3C" stroke-width="10" stroke-miterlimit="10"/>
<path d="M1250.85 532.986C1261.87 534.854 1270.95 553.56 1287.39 568.72C1320.74 599.467 1333.74 601.952 1354.78 624.412C1362.99 633.17 1373.86 644.995 1373.46 659.118C1372.85 680.747 1350.73 691.29 1315.74 726.757C1270.25 772.769 1259.43 788.691 1228.92 785.738C1221.83 785.045 1199.87 787.144 1183.1 774.045C1159.92 755.898 1167.64 726.449 1148.09 696.477C1124.63 660.477 1094.7 646.915 1101.9 627.218C1106.98 613.342 1128.49 607.831 1164.02 590.007C1191.09 576.43 1208.89 567.709 1222.29 555.772C1238.21 541.488 1238.6 530.905 1250.85 532.986Z" stroke="#344A3C" stroke-width="10" stroke-miterlimit="10"/>
<path d="M1214.51 472.002C1232.46 468.568 1247.61 494.482 1278.69 511.48C1342.46 546.337 1374.99 515.646 1422.36 544.462C1442.47 556.687 1464.2 578.171 1467.05 604.14C1471.08 640.995 1436.89 661.703 1374.78 734.449C1293.56 829.558 1281.55 864.782 1227.69 870.296C1216.71 871.416 1175.48 879.662 1144.25 857.247C1102.6 827.351 1121.92 775.293 1083.45 722.225C1040.5 662.921 975.855 652.141 982.845 627.114C987.7 609.732 1023.16 607.647 1086.85 580.238C1132.13 560.791 1158.52 549.145 1177.21 527.099C1200.78 499.28 1195.02 475.738 1214.51 472.002Z" stroke="#344A3C" stroke-width="10" stroke-miterlimit="10"/>
<path d="M1178.38 410.899C1203.2 402.079 1224.48 435.243 1270.22 454.119C1364.39 492.986 1415.75 428.421 1490.16 464.39C1522 479.789 1554.65 511.342 1560.85 549.043C1569.45 601.294 1523.47 632.119 1434.05 742.098C1317.37 886.483 1303.45 940.153 1226.68 954.83C1211.71 957.687 1151.34 972.133 1105.6 940.429C1045.51 898.769 1076.46 823.994 1019.02 747.961C956.572 665.287 857.263 657.368 863.983 626.953C868.667 606.063 917.982 607.186 1009.89 570.411C1073.36 545.018 1108.22 530.506 1132.35 498.357C1163.44 456.921 1151.65 420.38 1178.38 410.899Z" stroke="#344A3C" stroke-width="10" stroke-miterlimit="10"/>
<path d="M1142.28 349.631C1173.94 335.469 1201.38 375.768 1261.77 396.595C1386.36 439.337 1456.27 340.853 1557.98 384.165C1601.49 402.672 1645.09 444.387 1654.68 493.79C1667.81 561.482 1609.81 602.16 1493.32 749.546C1340.85 942.913 1325.13 1015.2 1225.67 1039.12C1206.7 1043.68 1127.23 1064.28 1066.94 1023.35C988.463 969.847 1031.05 872.485 954.59 773.44C872.689 667.363 738.627 662.325 745.132 626.629C749.615 602.229 812.827 606.56 932.935 560.421C1014.6 529.051 1057.89 511.723 1087.5 469.462C1126.05 414.392 1108.24 364.862 1142.28 349.631Z" stroke="#344A3C" stroke-width="10" stroke-miterlimit="10"/>
<path d="M1106.15 288.237C1064.78 309.223 1088.64 371.718 1042.62 440.413C1007.53 492.797 955.834 512.937 855.959 550.286C707.648 605.748 630.537 598.24 626.265 626.148C619.977 667.175 788.798 669.32 890.143 798.821C985.613 920.819 931.307 1040.97 1028.28 1106.18C1103.05 1156.44 1201.59 1129.59 1224.66 1123.3C1346.75 1090.03 1364.32 999.215 1552.58 756.857C1696.13 572.055 1766.15 521.556 1748.48 438.382C1735.5 377.287 1680.93 325.386 1625.77 303.785C1496.69 253.185 1408.22 385.752 1253.29 338.944C1178.21 316.259 1144.64 268.707 1106.15 288.237Z" stroke="#344A3C" stroke-width="10" stroke-miterlimit="10"/>
<path d="M528.235 1001.41C531.298 988.83 514.785 967.786 497.191 969.703C477.233 971.884 467.443 1002.37 475.18 1012.94C484.342 1025.45 524.19 1018.1 528.235 1001.41Z" stroke="#344A3C" stroke-width="10" stroke-miterlimit="10"/>
<path d="M432.563 1057.26C454.977 1072.23 489.83 1072.9 548.453 1069.28C606.582 1065.68 646.256 1054.81 647.205 1045.78C647.706 1040.86 632.425 1030.85 620.849 1021.89C599.227 1005.12 592.786 969.253 588.844 960.596C574.406 928.904 559.771 922.031 532.866 913.674C520.437 909.802 492.703 900.476 462.664 900.549C417.157 900.589 393.286 858.57 377.279 868.123C363.927 876.132 370.899 921.668 377.283 950.757C386.43 992.447 397.943 1034.1 432.563 1057.26Z" stroke="#344A3C" stroke-width="10" stroke-miterlimit="10"/>
<path d="M392.167 1101.78C431.576 1125.78 488.227 1125.59 593.214 1121.13C698.757 1116.87 768.003 1100.52 768.348 1090.35C768.643 1082.72 738.232 1065.34 715.761 1049.78C673.26 1020.49 663.209 952.573 657.827 939.353C633.491 879.015 606.712 869.014 557.243 855.01C536.64 849.175 485.694 831.859 430.241 831.523C345.268 830.918 302.612 743.656 274.586 758.269C251.253 770.46 267.476 856.85 282.122 910.169C302.872 985.437 325.556 1061.21 392.167 1101.78Z" stroke="#344A3C" stroke-width="10" stroke-miterlimit="10"/>
<path d="M352.043 1146.04C408.444 1179.12 486.898 1177.9 638.244 1172.73C791.195 1167.65 889.88 1145.96 889.816 1134.65C889.792 1124.28 844.322 1099.55 810.921 1077.45C747.478 1035.75 733.902 935.679 727.145 917.871C693.333 828.808 654.057 815.672 581.946 796.11C553.176 788.3 479.012 763.015 398.169 762.244C273.729 761.025 212.303 628.505 172.244 648.163C138.932 664.546 164.259 791.844 187.333 869.334C219.408 978.226 253.412 1088.21 352.043 1146.04Z" stroke="#344A3C" stroke-width="10" stroke-miterlimit="10"/>
<path d="M311.922 1190.2C385.322 1232.36 485.584 1230.11 683.29 1224.21C883.64 1218.36 1011.74 1191.35 1011.3 1178.85C1010.87 1165.76 950.49 1133.62 906.145 1105.01C821.85 1050.76 804.68 918.676 796.48 896.295C753.355 778.468 701.459 762.056 606.675 737.104C569.742 727.257 472.356 694.065 366.118 692.881C202.212 691.017 122.008 513.242 69.9224 537.971C26.6464 558.523 61.2475 726.69 92.553 828.406C136.207 970.812 181.252 1115.14 311.922 1190.2Z" stroke="#344A3C" stroke-width="10" stroke-miterlimit="10"/>
<path d="M865.833 874.665C813.453 728.071 748.796 708.676 631.413 678.055C586.284 666.281 465.707 625.064 334.082 623.454C130.703 620.997 31.723 397.935 -32.384 427.717C-85.6955 452.473 -41.7368 661.479 -2.20975 787.425C53.0462 963.399 109.107 1142.04 271.812 1234.31C362.22 1285.57 484.259 1282.27 728.345 1275.66C976.086 1268.95 1133.57 1236.64 1132.79 1222.99C1131.89 1207.17 1056.71 1167.66 1001.39 1132.52C896.249 1065.72 875.467 901.63 865.833 874.665Z" stroke="#344A3C" stroke-width="10" stroke-miterlimit="10"/>
<path d="M1035.77 -456.889C974.246 -424.435 1033.78 -308.91 920.413 -128.221C879.787 -63.4759 832.687 -15.4123 840.317 55.8951C841.091 63.0894 849.766 134.282 905.787 172.836C976.264 221.342 1045.19 165.51 1170.46 212.041C1216.6 229.179 1206.04 236.304 1242.09 248.371C1395.97 299.863 1502.79 141.312 1656.43 182.359C1727.16 201.254 1753.29 247.853 1760.39 241.18C1790.79 212.431 1201.54 -544.469 1035.77 -456.889Z" stroke="#344A3C" stroke-width="10" stroke-miterlimit="10"/>
<path d="M934.359 53.9042C935.913 57.9696 943.217 104.541 982.067 128.559C1031.14 158.941 1079.26 117.813 1163.83 145.979C1194.98 156.34 1188.14 160.397 1212.46 167.265C1316.25 196.562 1387.31 83.6894 1487.72 107.285C1534.2 118.201 1551.39 148.596 1554.32 142.789C1567.71 116.492 1162.63 -379.323 1053.76 -307.417C1012.93 -280.454 1049.88 -194.141 977.751 -68.5702C951.547 -22.9171 918.217 11.6486 934.359 53.9042Z" stroke="#344A3C" stroke-width="10" stroke-miterlimit="10"/>
<path d="M1028.41 51.9111C1031.7 52.4027 1036.88 74.7997 1058.35 84.2808C1086.2 96.5951 1113.28 70.1888 1157.2 79.9192C1173.33 83.4869 1170.3 84.4973 1182.84 86.168C1236.79 93.3211 1271.75 26.004 1319.02 32.2174C1341.25 35.0951 1348.07 48.5281 1348.28 44.4723C1337.83 17.6184 1123.59 -213.545 1071.74 -157.993C1051.47 -136.299 1066.09 -79.0665 1035.08 -8.96657C1023.29 17.6768 1014.24 35.4293 1028.41 51.9111Z" stroke="#344A3C" stroke-width="10" stroke-miterlimit="10"/>
<path d="M1122.45 49.9202C1162.07 25.0853 1163.12 -36.3897 1142.21 -53.9185C1111.35 -79.7581 1086.99 -45.8421 1089.72 -8.55035C1091.79 19.3147 1077.11 78.3407 1122.45 49.9202Z" stroke="#344A3C" stroke-width="10" stroke-miterlimit="10"/>
</g>
</svg>
